<?xml version="1.0" encoding="UTF-8"?>
<svg version="1.1" xmlns="http://www.w3.org/2000/svg" width="512" height="512">
<path d="M0 0 C1.49906909 -0.00373975 2.99813624 -0.00834256 4.49720031 -0.01373065 C8.6042229 -0.02593612 12.71116389 -0.02570307 16.81820047 -0.02334189 C21.25258213 -0.0229331 25.68693785 -0.03397886 30.12130737 -0.04345703 C38.80480508 -0.06005484 47.48827563 -0.06556604 56.17178788 -0.06668179 C63.23241667 -0.0676329 70.29303653 -0.07174633 77.35366249 -0.07808304 C97.38340856 -0.09569258 117.41313322 -0.10492243 137.44288709 -0.10342209 C139.06187873 -0.10330222 139.06187873 -0.10330222 140.71357727 -0.10317993 C141.794227 -0.10309817 142.87487673 -0.10301641 143.98827342 -0.10293217 C161.49683963 -0.10211948 179.00531976 -0.12125354 196.51386108 -0.14945666 C214.50285066 -0.17820442 232.49179829 -0.1919959 250.48081142 -0.19026911 C260.57568136 -0.18960584 270.67046107 -0.19507071 280.76531029 -0.21662521 C289.36124241 -0.23486195 297.95704341 -0.23916393 306.55298652 -0.22560637 C310.93539608 -0.21908913 315.31755429 -0.21891431 319.69993973 -0.23631287 C323.71895588 -0.25210411 327.73752264 -0.2491188 331.75652824 -0.2317446 C333.20335002 -0.22868794 334.65020585 -0.23225635 336.09698745 -0.24346475 C353.203536 -0.36711731 367.47488815 4.54540686 380.05659485 16.32992554 C397.49865842 34.80391495 397.91587498 56.13523353 397.82949352 80.26734352 C397.82035385 84.0520266 397.83445643 87.83663889 397.84541321 91.62130737 C397.86310894 99.01469415 397.85939865 106.40791761 397.84776264 113.80131054 C397.83869311 119.81529761 397.83751946 125.82923923 397.84185791 131.8432312 C397.84247084 132.7023565 397.84308377 133.5614818 397.84371528 134.44664121 C397.84499431 136.19246897 397.84629116 137.93829673 397.84760565 139.68412447 C397.85898523 156.01734654 397.84593903 172.3504785 397.82440418 188.68368578 C397.80653559 202.66867537 397.80964043 216.6535321 397.82807922 230.63851929 C397.84953241 246.91718605 397.85788684 263.19577404 397.84563017 279.47445297 C397.8443561 281.21350859 397.84309862 282.95256423 397.84185791 284.69161987 C397.84093226 285.97476668 397.84093226 285.97476668 397.8399879 287.28383565 C397.83654832 293.28379679 397.84233316 299.28370755 397.85177612 305.28366089 C397.86304709 312.60536733 397.85984975 319.92690246 397.83865315 327.24858952 C397.82821075 330.97726927 397.82390287 334.70566441 397.83724976 338.43434143 C397.91308221 361.57039863 397.30598005 381.39961269 380.51753235 399.05258179 C379.78792297 399.78348022 379.0583136 400.51437866 378.30659485 401.26742554 C377.74198547 401.84363647 377.1773761 402.41984741 376.59565735 403.01351929 C364.85169791 414.04138364 349.83993173 416.72461897 334.38613892 416.66183472 C332.88676679 416.66673044 331.38739844 416.67292339 329.88803643 416.68029261 C325.78935896 416.69662922 321.69087464 416.69438705 317.59217608 416.68891764 C313.16323361 416.68623962 308.73434173 416.7007938 304.30541992 416.7130127 C295.63622006 416.73403731 286.96708712 416.73860921 278.29786477 416.73682481 C271.24778486 416.73551553 264.19772576 416.7393298 257.14764977 416.74674988 C255.11435626 416.74884916 253.08106276 416.75094676 251.04776925 416.7530427 C249.52955595 416.75460799 249.52955595 416.75460799 247.98067167 416.7562049 C228.85007604 416.77509577 209.71951878 416.7740608 190.58891769 416.76723558 C173.10767255 416.76166267 155.62657407 416.78247685 138.14536319 416.81559604 C120.17663438 416.8493734 102.20797574 416.86449622 84.2392146 416.85987902 C74.15882517 416.8576382 64.07857123 416.86282052 53.998209 416.88777161 C45.41479884 416.90883717 36.83159846 416.91232486 28.24817953 416.89347202 C23.87356064 416.88434597 19.49933233 416.88307429 15.12474442 416.90382767 C11.11054683 416.9226597 7.09705637 416.91789922 3.08288469 416.89528185 C1.64012568 416.89112663 0.19731113 416.89519104 -1.24538895 416.90887779 C-18.60838142 417.0622211 -33.06619655 411.58482257 -45.88090515 399.70492554 C-63.16279643 381.48887797 -63.30117084 359.97653166 -63.21630383 336.26750755 C-63.20716415 332.48282447 -63.22126673 328.69821219 -63.23222351 324.9135437 C-63.24991924 317.52015692 -63.24620896 310.12693346 -63.23457295 302.73354053 C-63.22550342 296.71955346 -63.22432976 290.70561184 -63.22866821 284.69161987 C-63.22928115 283.83249457 -63.22989408 282.97336927 -63.23052558 282.08820987 C-63.23180461 280.3423821 -63.23310147 278.59655435 -63.23441595 276.8507266 C-63.24579553 260.51750454 -63.23274933 244.18437258 -63.21121448 227.85116529 C-63.19334589 213.86617571 -63.19645074 199.88131898 -63.21488953 185.89633179 C-63.23634272 169.61766502 -63.24469714 153.33907703 -63.23244047 137.0603981 C-63.23116641 135.32134248 -63.22990892 133.58228685 -63.22866821 131.8432312 C-63.22805111 130.98779999 -63.22743401 130.13236879 -63.22679821 129.25101542 C-63.22335862 123.25105428 -63.22914347 117.25114352 -63.23858643 111.25119019 C-63.24985739 103.92948374 -63.24666006 96.60794862 -63.22546345 89.28626156 C-63.21502106 85.55758181 -63.21071317 81.82918666 -63.22406006 78.10050964 C-63.29987132 54.97091812 -62.69999225 35.11643418 -45.89653015 17.47836304 C-45.1694989 16.74875366 -44.44246765 16.01914429 -43.69340515 15.26742554 C-43.1519989 14.70281616 -42.61059265 14.13820679 -42.05278015 13.55648804 C-30.32528008 2.36205615 -15.48779108 -0.03664945 0 0 Z M-25.11528015 43.77914429 C-29.90996584 51.33908186 -30.12479996 59.17530298 -30.07435608 67.90609741 C-30.07903605 69.15700417 -30.08371602 70.40791092 -30.08853781 71.69672394 C-30.10100139 75.14797912 -30.09489883 78.59898377 -30.08557916 82.05023956 C-30.07876983 85.78036654 -30.0892792 89.51045153 -30.09751892 93.24057007 C-30.11083842 100.53963294 -30.10798649 107.83860311 -30.099281 115.13766956 C-30.09249783 121.07131013 -30.09159047 127.00492478 -30.09485245 132.93856812 C-30.09531215 133.78401074 -30.09577185 134.62945336 -30.09624548 135.50051546 C-30.09720468 137.21817208 -30.09817732 138.93582869 -30.09916325 140.6534853 C-30.10771192 156.74895656 -30.09789122 172.84437651 -30.08176215 188.93983936 C-30.06835944 202.74176878 -30.07068768 216.54362249 -30.08451843 230.34555054 C-30.10058349 246.3845723 -30.10688799 262.42354913 -30.09768164 278.46257782 C-30.09672602 280.17381286 -30.09578291 281.88504791 -30.09485245 283.59628296 C-30.09438962 284.4381794 -30.09392679 285.28007585 -30.09344994 286.1474843 C-30.09086283 292.0719972 -30.09522503 297.99648152 -30.10229111 303.92098999 C-30.11071659 311.14385898 -30.10840396 318.3666302 -30.09244888 325.58948803 C-30.08458023 329.27265489 -30.08145042 332.95565891 -30.09139633 336.63882446 C-30.10202567 340.63560848 -30.08930905 344.63198353 -30.07435608 348.62875366 C-30.08104824 349.78702919 -30.08774041 350.94530472 -30.09463537 352.1386795 C-30.01978942 362.45479911 -28.13022888 369.74826194 -20.94340515 377.31820679 C-14.2395018 383.12592861 -6.29146287 384.39015267 2.36088276 384.39605999 C3.55860005 384.39928444 4.75631734 384.40250888 5.99032909 384.40583104 C7.29741728 384.40428244 8.60450547 384.40273383 9.95120239 384.40113831 C11.36064883 384.4030073 12.77009476 384.40530836 14.17953986 384.40800363 C18.04795242 384.41411707 21.91634335 384.41398857 25.78475964 384.41280925 C29.95869284 384.41260513 34.13261911 384.41812509 38.30654907 384.42286682 C46.48230586 384.43117141 54.65805544 384.43392158 62.83381609 384.4344792 C69.47976442 384.43495445 76.12571037 384.43700962 82.77165794 384.44017982 C101.61605401 384.44898584 120.46044437 384.45359928 139.30484251 384.45284935 C140.82853585 384.45278942 140.82853585 384.45278942 142.38301086 384.45272827 C143.40004731 384.45268739 144.41708376 384.45264651 145.4649395 384.45260439 C161.94813024 384.45219792 178.43129814 384.46176777 194.91448227 384.47586664 C211.84117306 384.49023057 228.7678527 384.49713681 245.69454974 384.49627286 C255.1968464 384.4959409 264.69911912 384.49868762 274.20141029 384.50945091 C282.29169424 384.51855613 290.38194338 384.52073098 298.47223023 384.51394149 C302.59887926 384.51067641 306.72546151 384.51061917 310.85210419 384.51929474 C314.63279062 384.52716116 318.41335734 384.52572687 322.19404086 384.51701061 C324.20324095 384.51475118 326.21244475 384.52230315 328.22163039 384.53025025 C339.34779335 384.48780709 348.55001344 383.39726524 357.03315735 375.70101929 C364.37162658 367.91067387 364.74676681 358.87869128 364.68754578 348.62875366 C364.69222575 347.37784691 364.69690572 346.12694016 364.70172751 344.83812714 C364.71419109 341.38687196 364.70808853 337.93586731 364.69876885 334.48461151 C364.69195953 330.75448453 364.70246889 327.02439955 364.71070862 323.29428101 C364.72402812 315.99521814 364.72117618 308.69624797 364.7124707 301.39718151 C364.70568753 295.46354094 364.70478017 289.5299263 364.70804214 283.59628296 C364.70850184 282.75084033 364.70896154 281.90539771 364.70943517 281.03433561 C364.71039438 279.31667899 364.71136702 277.59902238 364.71235295 275.88136578 C364.72090162 259.78589451 364.71108092 243.69047456 364.69495185 227.59501171 C364.68154914 213.7930823 364.68387738 199.99122859 364.69770813 186.18930054 C364.71377319 170.15027877 364.72007769 154.11130194 364.71087134 138.07227325 C364.70991572 136.36103821 364.70897261 134.64980317 364.70804214 132.93856812 C364.7073479 131.67572345 364.7073479 131.67572345 364.70663964 130.38736677 C364.70405253 124.46285388 364.70841473 118.53836955 364.7154808 112.61386108 C364.72390629 105.39099209 364.72159366 98.16822088 364.70563857 90.94536304 C364.69776993 87.26219618 364.69464011 83.57919217 364.70458603 79.89602661 C364.71521537 75.89924259 364.70249875 71.90286755 364.68754578 67.90609741 C364.69423794 66.74782188 364.70093011 65.58954636 364.70782506 64.39617157 C364.63297912 54.08005197 362.74341857 46.78658913 355.55659485 39.21664429 C348.8526915 33.40892246 340.90465256 32.14469841 332.25230694 32.13879108 C331.05458965 32.13556664 329.85687236 32.13234219 328.62286061 32.12902004 C327.31577242 32.13056864 326.00868423 32.13211724 324.6619873 32.13371277 C323.25254086 32.13184377 321.84309494 32.12954272 320.43364984 32.12684745 C316.56523728 32.120734 312.69684634 32.12086251 308.82843006 32.12204182 C304.65449686 32.12224594 300.48057059 32.11672598 296.30664062 32.11198425 C288.13088384 32.10367966 279.95513426 32.1009295 271.77937361 32.10037187 C265.13342528 32.09989663 258.48747933 32.09784145 251.84153175 32.09467125 C232.99713569 32.08586524 214.15274532 32.0812518 195.30834719 32.08200172 C193.78465385 32.08206166 193.78465385 32.08206166 192.23017883 32.0821228 C191.21314238 32.08216368 190.19610594 32.08220456 189.1482502 32.08224668 C172.66505946 32.08265315 156.18189156 32.07308331 139.69870742 32.05898444 C122.77201664 32.0446205 105.84533699 32.03771426 88.91863996 32.03857821 C79.41634329 32.03891017 69.91407058 32.03616346 60.4117794 32.02540016 C52.32149546 32.01629495 44.23124632 32.0141201 36.14095946 32.02090959 C32.01431044 32.02417466 27.88772819 32.0242319 23.76108551 32.01555634 C19.98039907 32.00768992 16.19983236 32.00912421 12.41914884 32.01784047 C10.40994875 32.02009989 8.40074495 32.01254792 6.3915593 32.00460082 C-6.73906767 32.05469045 -16.03325333 33.86954961 -25.11528015 43.77914429 Z " fill="#000000" transform="translate(88.69340515136719,47.732574462890625)"/>
<path d="M0 0 C1.10794922 -0.03867188 1.10794922 -0.03867188 2.23828125 -0.078125 C9.54508962 0.90077756 14.11135784 6.24059392 19.04785156 11.20629883 C19.86481506 12.01639908 20.68177856 12.82649933 21.52349854 13.66114807 C24.21609651 16.33547593 26.89749347 19.02071259 29.578125 21.70703125 C31.4476927 23.57203788 33.31763212 25.43667196 35.18792725 27.3009491 C39.10386165 31.20686617 43.01310801 35.11938855 46.91894531 39.03540039 C51.4288833 43.55682689 55.95146724 48.06531073 60.48052239 52.567581 C64.84533773 56.90755037 69.19890497 61.25863113 73.54808807 65.61426353 C75.3965939 67.46292282 77.24821143 69.30847605 79.10297394 71.15085793 C81.69325373 73.72627421 84.2704749 76.31409378 86.84472656 78.90551758 C87.61357178 79.66469482 88.38241699 80.42387207 89.17456055 81.20605469 C93.64429683 85.73850755 96.32607058 89.20452688 96.91015625 95.7421875 C96.59129256 100.48625705 95.89657886 103.52858461 92.62004089 107.06228638 C91.66983346 108.09455542 91.66983346 108.09455542 90.70042992 109.14767838 C87.40174033 112.59285866 84.07823116 116.00669438 80.7043457 119.37841797 C79.93921661 120.14690567 79.17408752 120.91539337 78.38577271 121.70716858 C75.88089523 124.22146968 73.37233496 126.73205437 70.86328125 129.2421875 C69.11159585 130.99708894 67.35998466 132.75206447 65.60844421 134.5071106 C61.94964018 138.17188253 58.28879516 141.8346017 54.62670898 145.49609375 C49.93070656 150.19199411 45.2416628 154.89474658 40.55430317 159.59927177 C36.94525303 163.21942142 33.3316864 166.83503626 29.71681786 170.44937515 C27.98522613 172.18214791 26.25525799 173.91654469 24.5269413 175.65258408 C22.11682564 178.07246797 19.70049214 180.48596859 17.2824707 182.89794922 C16.56914078 183.61689865 15.85581085 184.33584808 15.12086487 185.07658386 C14.46076416 185.73249008 13.80066345 186.3883963 13.12055969 187.06417847 C12.2658683 187.91968701 12.2658683 187.91968701 11.39391041 188.79247856 C6.9990265 192.54634545 2.98383341 192.67835553 -2.62109375 192.56640625 C-7.69618302 191.96977021 -10.32143998 189.34820164 -13.625 185.6875 C-16.55833166 181.45046538 -16.95348821 177.2744694 -16.3125 172.25 C-14.14681113 166.06491166 -10.32427504 161.69921894 -5.70800781 157.19140625 C-5.05393448 156.53674881 -4.39986115 155.88209137 -3.72596741 155.20759583 C-1.58187211 153.06626636 0.57599511 150.93942196 2.734375 148.8125 C4.23168804 147.32265463 5.72811493 145.83191819 7.22369385 144.34033203 C11.14727461 140.43196584 15.08272111 136.53576583 19.02081299 132.64202881 C23.04328706 128.66059728 27.0543502 124.66770589 31.06640625 120.67578125 C38.92901639 112.8559683 46.80421739 105.04896841 54.6875 97.25 C53.01695592 92.86940184 49.73009343 90.05598167 46.44946289 86.84838867 C45.49064964 85.8987751 45.49064964 85.8987751 44.51246643 84.92997742 C43.12538404 83.55718971 41.73607319 82.18665084 40.34480476 80.8181057 C38.14145974 78.64956759 35.94530093 76.47398977 33.75108337 74.29621887 C27.51182071 68.10583607 21.26156259 61.92664586 15.00219727 55.7565918 C11.17235534 51.98040603 7.35238478 48.19446318 3.53826714 44.40239906 C2.08481591 42.96134224 0.6275833 41.52408875 -0.83350945 40.09078026 C-2.8799562 38.08289936 -4.91365972 36.06287308 -6.94506836 34.03979492 C-7.54828918 33.45409729 -8.15151001 32.86839966 -8.77301025 32.26495361 C-12.97582834 28.04243915 -15.63621423 24.02261378 -16.7109375 18.02734375 C-16.6427029 12.67092789 -15.72121053 8.68503523 -11.8828125 4.8046875 C-8.03924486 1.45829776 -5.03372639 0.10432594 0 0 Z " fill="#000000" transform="translate(133.3125,159.75)"/>
<path d="M0 0 C1.12005936 -0.0071553 2.24011871 -0.01431061 3.39411926 -0.02168274 C4.62376404 -0.02437164 5.85340881 -0.02706055 7.12031555 -0.02983093 C8.41488174 -0.03640213 9.70944794 -0.04297333 11.04324341 -0.04974365 C15.3388597 -0.07076968 19.63447628 -0.08114611 23.93013 -0.09111023 C25.41056143 -0.09515863 26.89099267 -0.09927557 28.37142372 -0.10346031 C35.32861223 -0.12251045 42.28579016 -0.13674066 49.24299973 -0.14507228 C57.26473618 -0.15483807 65.2861962 -0.18114086 73.30783528 -0.22157317 C79.51349196 -0.2517748 85.71906959 -0.26654506 91.92479831 -0.26985329 C95.62849466 -0.2721996 99.33189565 -0.28110452 103.03551292 -0.30631447 C107.17202904 -0.33401593 111.30793121 -0.32975174 115.4445343 -0.32279968 C116.66405792 -0.33560974 117.88358154 -0.3484198 119.14006042 -0.36161804 C126.10797827 -0.31895738 130.69791504 0.35958716 136.60591125 4.14717102 C141.50240986 9.42032336 142.01735553 13.03535484 141.94966125 20.09248352 C141.45838593 24.45813467 139.97748378 27.3323 136.60591125 30.14717102 C130.65452095 34.22971353 124.29982302 33.57603245 117.36787415 33.55122375 C116.0187524 33.55693118 114.66963548 33.56389688 113.32052612 33.57202148 C109.6675654 33.58992723 106.01484523 33.58878945 102.36185384 33.5830791 C99.30772666 33.57998345 96.25364544 33.58608388 93.19952482 33.59211785 C85.99225584 33.606153 78.78510542 33.60461026 71.57783508 33.59321594 C64.1523302 33.58173573 56.72718655 33.59581083 49.30172926 33.62261242 C42.91681254 33.644792 36.53200902 33.65140173 30.14705652 33.64553601 C26.33783881 33.64217058 22.52885261 33.64455362 18.71966743 33.66178703 C15.13669473 33.67729034 11.55425581 33.67326385 7.97130394 33.65448189 C6.03681475 33.64905797 4.1023014 33.6632844 2.16786194 33.67817688 C-4.57734291 33.62109661 -8.94716688 33.25601845 -14.39408875 29.14717102 C-18.08041758 25.36632093 -18.69770254 22.26588233 -18.89408875 17.14717102 C-18.70409333 12.02996108 -18.02242538 8.96647274 -14.39408875 5.14717102 C-9.52116506 1.4676164 -6.05253313 0.02652844 0 0 Z " fill="#000000" transform="translate(258.3940887451172,318.8528289794922)"/>
</svg>
